<?xml version="1.0" encoding="utf-8"?>
<!-- Generator: Adobe Illustrator 16.0.0, SVG Export Plug-In . SVG Version: 6.00 Build 0)  -->
<!DOCTYPE svg PUBLIC "-//W3C//DTD SVG 1.1//EN" "http://www.w3.org/Graphics/SVG/1.1/DTD/svg11.dtd">
<svg version="1.1" id="Layer_3" xmlns="http://www.w3.org/2000/svg" xmlns:xlink="http://www.w3.org/1999/xlink" x="0px" y="0px"
	 width="841.89px" height="595.28px" viewBox="0 0 841.89 595.28" enable-background="new 0 0 841.89 595.28" xml:space="preserve">
<g>
	<path fill="#3D3D3D" d="M342.148,368.903c35.195-1.159,72.141,36.098,72.141,36.098c-6.641-12.932-24.222-29.448-32.887-38.739
		c-25.635-27.489-90.319-22.162-120.805-27.703c-29.282-5.322-43.625-30.201-43.625-30.201
		c10.738,93.289,69.127,110.738,69.127,110.738c39.597,11.41,73.154,0,73.154,0c-105.369,9.396-114.772-70.859-114.772-70.859
		c21.477,16.107,32.842,15.237,43.632,18.025C291.685,367.185,327.836,369.375,342.148,368.903z"/>
	<path fill="#3D3D3D" d="M378.648,356.236c-89.166-94.75-13.5-153.334-13.5-153.334c2.668,0,25,18.168,25,18.168
		c-14.832-26.334-33.166-42.5-33.166-42.5c-37.333,38.333-34.334,82.332-34.334,82.332
		C325.982,315.569,378.648,356.236,378.648,356.236z"/>
	<path fill="#5B674E" d="M337.815,337.486c-71-35.75-68.25-95.5-68.25-95.5c20.75,0,41.75,15,41.75,15
		c-18-26.75-58.75-35.75-58.75-35.75C253.565,335.486,337.815,337.486,337.815,337.486z"/>
	<path fill="#3D3D3D" d="M600.127,338.559c-30.486,5.541-95.171,0.214-120.807,27.703c-8.664,9.291-26.246,25.808-32.885,38.739
		c0,0,36.943-37.257,72.139-36.098c14.313,0.472,50.465-1.719,54.035-2.642c10.789-2.788,22.156-1.918,43.633-18.025
		c0,0-9.404,80.256-114.773,70.859c0,0,33.557,11.41,73.154,0c0,0,58.389-17.449,69.127-110.738
		C643.75,308.357,629.408,333.236,600.127,338.559z"/>
	<path fill="#3D3D3D" d="M482.074,356.236c0,0,52.667-40.667,56-95.334c0,0,3-43.999-34.333-82.332c0,0-18.333,16.166-33.167,42.5
		c0,0,22.334-18.168,25-18.168C495.574,202.902,571.241,261.486,482.074,356.236z"/>
	<path fill="#5B674E" d="M522.908,337.486c0,0,84.25-2,85.25-116.25c0,0-40.75,9-58.75,35.75c0,0,21-15,41.75-15
		C591.158,241.986,593.908,301.736,522.908,337.486z"/>
	<path fill="#5B674E" d="M456.074,382.57c0,0,43.667-49.751,38-103.209c0,0-10.333-42.125-63.666-84.791l-0.047,1.152l-0.046-1.152
		c-53.333,42.666-63.667,84.791-63.667,84.791c-5.666,53.458,38,103.209,38,103.209c-54.471-94.087,15.436-147.934,25.713-155.154
		C440.64,234.637,510.546,288.483,456.074,382.57z"/>
</g>
</svg>
